<?xml version="1.0" encoding="utf-8"?>
<!-- Generator: Adobe Illustrator 16.0.0, SVG Export Plug-In . SVG Version: 6.00 Build 0)  -->
<!DOCTYPE svg PUBLIC "-//W3C//DTD SVG 1.1//EN" >
<svg version="1.1" id="图层_1" xmlns="http://www.w3.org/2000/svg" xmlns:xlink="http://www.w3.org/1999/xlink" x="0px" y="0px"
	 width="345.941px" height="347.34px" viewBox="0 0 345.941 347.34" enable-background="new 0 0 345.941 347.34"
	 xml:space="preserve">
	<g id="LWPOLYLINE" class="_area_background">
		<path fill="#FFFBD8" d="M77.312,52.481l188.335-2.76c13.394,5.948,24.022,16.765,29.735,30.259l1.566,194.754
			c-0.025,1.721-0.734,3.361-1.974,4.557l-15.683,15.613c-1.535,0.979-3.271,1.6-5.078,1.814l-207.027-0.06
			c-0.789,0-1.546-0.312-2.105-0.869l-13.578-13.493l-0.587-1.398L49.891,77.553C51.353,63.452,63.137,52.677,77.312,52.481"/>
	</g>
	<g>
		<path fill="#B75A74" stroke="#FFFFFF" stroke-width="0.1" stroke-miterlimit="10" d="M204.408,205.637l9.258-0.757l42.231-0.03
			v84.938h-86.333v-14.239h-4.58v-19.268l-1.484-0.106c-0.291-18.229,9.228-35.214,24.93-44.479l0.546-0.346
			C193.828,208.732,199.021,206.809,204.408,205.637"/>
	</g>
	<g>
		<polyline fill="#B75A74" stroke="#FFFFFF" stroke-width="0.1" stroke-miterlimit="10" points="78.542,207.75 79.812,227.633 
			73.084,228.443 66.922,235.271 65.23,208.182 78.542,207.75 		"/>
	</g>
	<g>
		<polyline fill="#B75A74" stroke="#FFFFFF" stroke-width="0.1" stroke-miterlimit="10" points="82.68,231.887 80.839,233.982 
			82.274,235.188 75.317,243.002 82.882,248.744 82.15,249.75 93.451,257.066 98.929,247.695 93.3,244.203 93.539,243.764 
			91.992,242.73 94.642,238.873 97.194,240.6 99.149,237.256 89.595,230.497 86.254,234.822 82.68,231.887 		"/>
	</g>
	<g>
		<polyline fill="#B75A74" stroke="#FFFFFF" stroke-width="0.1" stroke-miterlimit="10" points="100.763,245.25 93.623,257.167 
			114.155,267.111 121.123,248.667 106.891,241.969 103.931,247.033 100.763,245.25 		"/>
	</g>
	<g>
		<polyline fill="#B75A74" stroke="#FFFFFF" stroke-width="0.1" stroke-miterlimit="10" points="130.584,257.954 132.239,251.852 
			139.942,253.707 135.943,273.624 122.914,270.445 127.147,256.949 130.584,257.954 		"/>
	</g>
	<g>
		<polyline fill="#B75A74" stroke="#FFFFFF" stroke-width="0.1" stroke-miterlimit="10" points="147.481,263.908 145.792,275.434 
			154.289,276.145 156.534,256.215 151.58,255.716 150.825,261.395 154.489,261.471 154.278,264.51 147.481,263.908 		"/>
	</g>
	<g>
		<polyline fill="#B75A74" stroke="#FFFFFF" stroke-width="0.1" stroke-miterlimit="10" points="139.942,253.707 147.985,255.027 
			145.298,275.221 135.943,273.624 139.942,253.707 		"/>
	</g>
	<g>
		<polyline fill="#B75A74" stroke="#FFFFFF" stroke-width="0.1" stroke-miterlimit="10" points="156.534,256.215 154.289,276.145 
			155.481,276.223 155.77,276.241 159.464,276.389 159.499,275.352 164.52,275.411 164.669,256.589 156.534,256.215 		"/>
	</g>
	<g>
		<path fill="#B75A74" stroke="#FFFFFF" stroke-width="0.1" stroke-miterlimit="10" d="M115.923,127.454l-1.215,14.639l-3.308-0.127
			l-0.107,10.402l-2.566,0.131l-9.944,0.506l-0.051-0.995l-2.446,0.124l0.747-20.165l1.625-12.621
			c4.337,1.891,8.981,2.98,13.707,3.217c0.759,1.795,2.041,3.321,3.678,4.377"/>
	</g>
	<g>
		<polyline fill="#B75A74" stroke="#FFFFFF" stroke-width="0.1" stroke-miterlimit="10" points="111.4,141.965 114.708,142.093 
			114.708,153.282 111.314,153.396 108.778,153.495 108.727,152.498 111.293,152.367 111.4,141.965 114.708,142.093 		"/>
	</g>


	  <circle id="circle_point" cx="100" cy="-0" r="4" stroke="blue"
                            stroke-width="2" fill="red"/>

	<g>
		<polyline fill="#B75A74" stroke="#FFFFFF" stroke-width="0.1" stroke-miterlimit="10" points="96.628,157.7 114.663,156.854 
			117.318,178.305 101.354,181.876 102.378,186.256 100.471,186.689 98.481,176.814 96.675,160.849 96.628,157.7 		"/>
	</g>
	<g>
		<polyline fill="#B75A74" stroke="#FFFFFF" stroke-width="0.1" stroke-miterlimit="10" points="112.055,183.045 118.007,181.318 
			119.617,188.717 114.425,190.745 112.055,183.045 		"/>
	</g>
	<g>
		<polyline fill="#B75A74" stroke="#FFFFFF" stroke-width="0.1" stroke-miterlimit="10" points="111.977,187.463 112.884,191.292 
			102.74,195.254 101.225,190.012 111.977,187.463 		"/>
	</g>
	<g>
		<path fill="#B75A74" stroke="#FFFFFF" stroke-width="0.1" stroke-miterlimit="10" d="M116.82,205.678l5.113-6.869l-3.634-3.108
			l3.715-1.451c2.89,2.976,6.761,4.799,10.894,5.136l0.309,5.689l-2.19,0.07l0.186,3.197l-1.59,0.094l0.381,6.543l5.964-0.348
			l0.071,1.91c-12.481,1.479-24.598-4.822-30.553-15.893l4.628-1.754C111.883,201.574,114.162,203.878,116.82,205.678"/>
	</g>
	<g>
		<path fill="#B75A74" stroke="#FFFFFF" stroke-width="0.1" stroke-miterlimit="10" d="M135.09,199.469l1.594,17.034
			c6.528-0.498,12.781-2.833,18.038-6.733l-10.087-13.67C141.864,198.156,138.538,199.33,135.09,199.469"/>
	</g>
	<g>
		<path fill="#B75A74" stroke="#FFFFFF" stroke-width="0.1" stroke-miterlimit="10" d="M132.726,120.473
			c1.576,5.552,3.754,10.915,6.497,15.993l-8.97,5.181c-1.109-5.589-1.498-11.297-1.156-16.985c0.834-1.106,1.409-2.386,1.681-3.744
			L132.726,120.473"/>
	</g>
	<g>
		<polyline fill="#B75A74" stroke="#FFFFFF" stroke-width="0.1" stroke-miterlimit="10" points="140.638,144.237 142.159,146.332 
			144.653,144.521 147.569,148.009 142.944,152.167 138.038,146.107 140.638,144.237 		"/>
	</g>
	<g>
		<path fill="#B75A74" stroke="#FFFFFF" stroke-width="0.1" stroke-miterlimit="10" d="M151.481,179.346l16.685-2.744
			c0.53,3.785,0.538,7.625,0.025,11.414l-10.116-1.386l0.386-3.812l-6.579,1.033C152.043,182.338,151.906,180.809,151.481,179.346"
			/>
	</g>
	<g>
		<path fill="#B75A74" stroke="#FFFFFF" stroke-width="0.1" stroke-miterlimit="10" d="M151.9,183.85l6.561-1.029l-0.386,3.811
			l10.116,1.385c-1.216,6.698-4.115,12.979-8.423,18.25l-12.179-12.981C149.709,190.498,151.182,187.275,151.9,183.85"/>
	</g>
	<g>
		<path fill="#B75A74" stroke="#FFFFFF" stroke-width="0.1" stroke-miterlimit="10" d="M150.942,177.014l4.751-0.781l-0.355-2.163
			l11.57-1.9c-0.28-2.789-1.406-5.425-3.228-7.555l-15.722,7.838C149.257,173.75,150.273,175.303,150.942,177.014"/>
	</g>
	<g>
		<path fill="#B75A74" stroke="#FFFFFF" stroke-width="0.1" stroke-miterlimit="10" d="M157.78,167.556
			c-1.597-2.468-3.546-4.688-5.787-6.592l-9.109,4.547c1.523,2.433,3.219,4.752,5.075,6.941L157.78,167.556"/>
	</g>
	<g>
		<path fill="#B75A74" stroke="#FFFFFF" stroke-width="0.1" stroke-miterlimit="10" d="M138.038,146.107l4.906,6.06l4.629-4.162
			l8.47,7.784c3.033,2.482,5.617,5.467,7.638,8.826l-5.901,2.942c-1.597-2.468-3.546-4.688-5.787-6.592l-9.109,4.547
			c-3.331-5.389-5.94-11.193-7.761-17.261L138.038,146.107"/>
	</g>
	<g>
		<polyline fill="#B75A74" stroke="#FFFFFF" stroke-width="0.1" stroke-miterlimit="10" points="60.5,190.252 73.766,187.785 
			73.09,184.047 77.09,183.279 75.347,172.49 71.548,172.976 58.01,174.283 60.5,190.252 		"/>
	</g>
	<g>
		<polyline fill="#B75A74" stroke="#FFFFFF" stroke-width="0.1" stroke-miterlimit="10" points="58.186,169.865 71.078,168.668 
			70.141,150.248 73.925,150.073 74.237,140.153 56.72,139.8 57.345,169.946 58.186,169.865 		"/>
	</g>
	<g>
		<polyline fill="#B75A74" stroke="#FFFFFF" stroke-width="0.1" stroke-miterlimit="10" points="57.32,130.099 60.639,130.384 
			60.264,134.749 70.19,135.6 70.307,133.861 74.424,134.214 74.237,140.153 56.72,139.8 57.32,130.099 		"/>
	</g>
	<g>
		<polyline fill="#B75A74" stroke="#FFFFFF" stroke-width="0.1" stroke-miterlimit="10" points="59.755,109.733 72.929,112.501 
			70.858,131.26 57.32,130.099 59.755,109.733 		"/>
	</g>
	<g>
		<polyline fill="#B75A74" stroke="#FFFFFF" stroke-width="0.1" stroke-miterlimit="10" points="59.755,109.733 72.929,112.502 
			73.541,110.187 77.596,110.925 78.893,103.945 61.895,100.11 59.755,109.733 		"/>
	</g>
	<g>
		<path fill="#B75A74" stroke="#FFFFFF" stroke-width="0.1" stroke-miterlimit="10" d="M61.895,100.11l16.998,3.84
			c0.42-2.669,1.268-5.253,2.51-7.652L68.886,84.127L64.17,83.94l-3.715,5.317l2.053,3.284l0.903,0.903L61.895,100.11"/>
	</g>
	<g>
		<path fill="#B75A74" stroke="#FFFFFF" stroke-width="0.1" stroke-miterlimit="10" d="M93.076,81.497l-3.113,1.332l1.494,3.693
			l-3.461,2.054l-11.8-11.236l-1.182-4.472l3.68-3.519l6.945,0.253C91,66.926,96.8,65.239,102.76,64.623l3.133,13.325
			c-2.91,0.306-5.767,0.996-8.497,2.052l-3.899-9.146l-4.062,1.642L93.076,81.497"/>
	</g>
	<g>
		<path fill="#B75A74" stroke="#FFFFFF" stroke-width="0.1" stroke-miterlimit="10" d="M102.76,64.623l3.133,13.325l5.82-1.051
			l0.382,3.965l7.053-0.258l-0.199-17.675C113.499,62.694,108.044,63.265,102.76,64.623"/>
	</g>
	<g>
		<path fill="#B75A74" stroke="#FFFFFF" stroke-width="0.1" stroke-miterlimit="10" d="M118.95,62.929l0.199,17.675l6.15,0.308
			l0.798-8.278l9.062,1.315l1.313-2.633l0.578-8.265l-7.011,0.072l0.014,0.416C126.366,63.134,122.659,62.931,118.95,62.929"/>
	</g>
	<g>
		<polyline fill="#B75A74" stroke="#FFFFFF" stroke-width="0.1" stroke-miterlimit="10" points="132.937,77.248 127.726,76.491 
			127.288,81.034 132.047,81.821 132.937,77.248 		"/>
	</g>
	<g>
		<path fill="#B75A74" stroke="#FFFFFF" stroke-width="0.1" stroke-miterlimit="10" d="M216.095,149.812l4.094,8.211v30.417
			l-0.255-0.008H206.3c-5.037-0.647-9.496-3.576-12.092-7.941c-4.662-7.84-2.084-17.976,5.756-22.637L216.095,149.812"/>
	</g>
	<g>
		<polyline fill="#B75A74" stroke="#FFFFFF" stroke-width="0.1" stroke-miterlimit="10" points="220.388,179.299 220.333,190.423 
			236.022,190.423 236.022,179.3 220.388,179.3 		"/>
	</g>
	<g>
		<polyline fill="#B75A74" stroke="#FFFFFF" stroke-width="0.1" stroke-miterlimit="10" points="239.65,179.221 252.08,179.221 
			252.08,190.423 239.65,190.423 239.65,179.221 		"/>
	</g>
	<g>
		<path fill="#B75A74" stroke="#FFFFFF" stroke-width="0.1" stroke-miterlimit="10" d="M226.398,154.578l-3.229,1.61l-4-7.909
			l37.397-18.389c5.136-1.475,10.644,0.446,13.747,4.795c4.047,5.669,2.73,13.546-2.939,17.592l-1.306-2.019h-16.465l-8.479,4.246
			L226.398,154.578"/>
	</g>
	<g>
		<polyline fill="#B75A74" stroke="#FFFFFF" stroke-width="0.1" stroke-miterlimit="10" points="227.675,156.867 265.541,157.065 
			265.541,166.604 263.503,166.604 263.548,176.682 265.541,176.682 265.541,190.423 252.396,190.423 252.396,176.71 
			222.048,177.109 222.193,164.085 227.675,164.085 227.675,156.867 		"/>
	</g>
	<g>
		<path fill="#B75A74" stroke="#FFFFFF" stroke-width="0.1" stroke-miterlimit="10" d="M180.818,130.804
			c8.987,0.435,17.994-0.292,26.796-2.165c18.952-5.628,36.126-16.066,49.851-30.298c7.961-9.403,6.795-23.48-2.608-31.442
			c-0.722-0.612-1.483-1.177-2.276-1.692l-95.646-0.996c-5.153,6.357-8.748,13.832-10.498,21.826
			c-3.251,12.129-1.497,25.056,4.87,35.879l4.233-1.863l4.106-1.925c2.669,4.458,6.188,8.346,10.357,11.446
			c2.945-1.784,6.68-1.596,9.43,0.476l1.094,0.741"/>
	</g>
	<g id="LWPOLYLINE_95_" class=" _area_obstacle">
		<path fill="#D1D3D5" d="M143.667,178.219l-1.599,1.202l-12.664,8.267l-3.037,2.293l0.342,0.008
			c4.635,3.723,11.409,2.982,15.131-1.652C144.124,185.491,144.812,181.684,143.667,178.219"/>
	</g>
	<g id="LWPOLYLINE_96_" class=" _area_obstacle">
		<path fill="#D1D3D5" d="M101,200.063c1.958,3.209,4.362,6.121,7.14,8.653c8.522,6.998,19.422,10.427,30.416,9.563
			c6.966-0.547,13.508-3.559,18.454-8.494l12.396,13.054c-6.382,8.718-9.995,19.151-10.368,29.948l-9.276-0.77
			c-22.886-2.502-44.496-11.808-62.039-26.715l-1.507,0.143l-0.671-19.348L101,200.063"/>
	</g>
	<g id="LWPOLYLINE_97_" class=" _area_obstacle">
		<path fill="#D1D3D5" d="M160.167,206.779l11.886,12.773c3.897-4.744,8.629-8.732,13.963-11.771
			c-0.599-1.707-0.668-3.557-0.2-5.305c1.284-4.806,6.223-7.66,11.028-6.375l4.243-9.279c-4.195-1.807-7.516-5.188-9.241-9.42
			l-21.542,6.295C169.807,192.359,166.208,200.553,160.167,206.779"/>
	</g>
	<g id="LWPOLYLINE_98_" class=" _area_obstacle">
		<polyline fill="#D1D3D5" points="185.597,88.72 221.583,88.72 221.583,104.852 185.597,104.852 185.597,88.72 		"/>
	</g>
	<g id="LWPOLYLINE_99_" class=" _area_obstacle">
		<path fill="#D1D3D5" d="M117.812,128.292l2.375,0.161l2.35,13.31l1.158,6.937l6.879-1.251c2.252,7.319,5.489,14.298,9.622,20.745
			l2.293,2.635l-10.419,6.917l-0.916-1.398l-1.876,1.246l-1.738,1.139l0.924,1.396l-7.303,5.265
			C116.313,166.759,115.175,147.359,117.812,128.292"/>
	</g>
	<g id="LWPOLYLINE_100_" class=" _area_obstacle">
		<path fill="#D1D3D5" d="M85.152,201.548l13.852-5.409c-7.545-25.7-8.949-52.812-4.098-79.153l-14.985-3.502
			c-3.373,23.496-3.444,47.348-0.211,70.864l-3.18,0.603l2.789,12.387C81.65,198.107,83.687,199.578,85.152,201.548"/>
	</g>
	<g id="LWPOLYLINE_101_" class=" _area_obstacle">
		<path fill="#D1D3D5" d="M159.989,137.803l6.863,6.401l-8.441,9.824c-12.498-9.406-21.249-22.946-24.691-38.204l-4.64,1.137
			c-0.499-4.843-4.83-8.365-9.673-7.866c-4.621,0.476-8.08,4.456-7.906,9.098l-15.963-4.619l-14.931-3.271
			c-0.162-10.42,6.453-19.743,16.342-23.032c10.789-3.588,22.311-4.391,33.493-2.332c4.842,0.829,9.514,2.453,13.826,4.805
			c-1.257,8.263-0.27,16.712,2.859,24.462l-3.075,1.335l5.768,12.149L159.989,137.803z"/>
	</g>
	<g id="LWPOLYLINE_102_" class=" _area_obstacle">
		<path fill="#D1D3D5" d="M205.302,188.029l-0.92,2.685c-1.031,2.599-2.27,5.11-3.699,7.513c1.701,1.705,2.678,4.004,2.725,6.412
			c3.051-0.58,6.153-0.834,9.258-0.758l42.231-0.029l0.007-14.248l-36.068-0.08h-0.299v-1.492h-13.234"/>
	</g>
	<g id="LWPOLYLINE_103_" class=" _area_obstacle">
		<path fill="#D1D3D5" d="M179.525,129.79c2.53,2.291,3.627,5.77,2.868,9.097c-1.158,5.085-6.22,8.268-11.305,7.109l-9.635,11.214
			c5.411,6.055,8.548,13.803,8.874,21.917l20.676-6.042c-0.813-6.606,2.414-13.056,8.189-16.365l56.277-27.803l-9.354-21.998
			C227.923,123.231,203.901,131.481,179.525,129.79z"/>
	</g>
	<g id="LWPOLYLINE_104_" class=" _area_obstacle">
		<path fill="#D1D3D5" d="M131.145,80.84c4.86,0.971,9.593,2.496,14.107,4.544c1.378-8.257,5.083-15.95,10.682-22.174l-19.884-1.16
			l-0.578,8.265l-1.313,2.633l-0.523,1.047l-1.118-0.243l-0.481,2.51L131.145,80.84"/>
	</g>
	<g id="LWPOLYLINE_105_" class=" _area_obstacle">
		<path fill="#D1D3D5" d="M67.886,83.127l12.516,12.171c1.714-2.95,3.948-5.566,6.592-7.722l-11.8-11.236L67.886,83.127"/>
	</g>
	<g id="LWPOLYLINE_106_" class=" _area_obstacle">
		<path fill="#D1D3D5" d="M72.766,186.785l2.241,10.773c-2.18-0.248-4.367,0.398-6.06,1.795l-1.308-0.641l-2.91,4.988
			c-0.632,1.051-0.952,2.26-0.923,3.484h-1.234l-0.248-7.938c0.129-3.107-1.238-6.092-3.678-8.023l0.853-1.974L72.766,186.785"/>
	</g>
	<g id="F2-SHOP-A001" class="_area_merchant">
		<path fill="#F27392" stroke="#FFFFFF" stroke-width="0.1" stroke-miterlimit="10" d="M203.408,204.637l9.258-0.757l42.231-0.03
			v84.938h-86.333v-14.239h-4.58v-19.268l-1.484-0.106c-0.291-18.229,9.228-35.214,24.93-44.479l0.546-0.346
			C192.828,207.732,198.021,205.809,203.408,204.637"/>
	</g>
	<g id="F2-SHOP-B001" class="_area_merchant">
		<polyline fill="#F27392" stroke="#FFFFFF" stroke-width="0.1" stroke-miterlimit="10" points="77.542,206.75 78.812,226.633 
			72.084,227.443 65.922,234.271 64.23,207.182 77.542,206.75 		"/>
	</g>
	<g id="F2-SHOP-B002" class="_area_merchant">
		<polyline fill="#F27392" stroke="#FFFFFF" stroke-width="0.1" stroke-miterlimit="10" points="81.68,230.887 79.839,232.982 
			81.274,234.188 74.317,242.002 81.882,247.744 81.15,248.75 92.451,256.066 97.929,246.695 92.3,243.203 92.539,242.764 
			90.992,241.73 93.642,237.873 96.194,239.6 98.149,236.256 88.595,229.497 85.254,233.822 81.68,230.887 		"/>
	</g>
	<g id="F2-SHOP-B003" class="_area_merchant">
		<polyline fill="#F27392" stroke="#FFFFFF" stroke-width="0.1" stroke-miterlimit="10" points="99.763,244.25 92.623,256.167 
			113.155,266.111 120.123,247.667 105.891,240.969 102.931,246.033 99.763,244.25 		"/>
	</g>
	<g id="F2-SHOP-B004-1" class="_area_merchant">
		<polyline fill="#F27392" stroke="#FFFFFF" stroke-width="0.1" stroke-miterlimit="10" points="129.584,256.954 131.239,250.852 
			138.942,252.707 134.943,272.624 121.914,269.445 126.147,255.949 129.584,256.954 		"/>
	</g>
	<g id="F2-SHOP-B005-1" class="_area_merchant">
		<polyline fill="#F27392" stroke="#FFFFFF" stroke-width="0.1" stroke-miterlimit="10" points="146.481,262.908 144.792,274.434 
			153.289,275.145 155.534,255.215 150.58,254.716 149.825,260.395 153.489,260.471 153.278,263.51 146.481,262.908 		"/>
	</g>
	<g id="F2-SHOP-B004-2" class="_area_merchant">
		<polyline fill="#F27392" stroke="#FFFFFF" stroke-width="0.1" stroke-miterlimit="10" points="138.942,252.707 146.985,254.027 
			144.298,274.221 134.943,272.624 138.942,252.707 		"/>
	</g>
	<g id="F2-SHOP-B005-2" class="_area_merchant">
		<polyline fill="#F27392" stroke="#FFFFFF" stroke-width="0.1" stroke-miterlimit="10" points="155.534,255.215 153.289,275.145 
			154.481,275.223 154.77,275.241 158.464,275.389 158.499,274.352 163.52,274.411 163.669,255.589 155.534,255.215 		"/>
	</g>
	<g id="F2-SHOP-C001" class="_area_merchant">
		<path fill="#F27392" stroke="#FFFFFF" stroke-width="0.1" stroke-miterlimit="10" d="M114.923,126.454l-1.215,14.639l-3.308-0.127
			l-0.107,10.402l-2.566,0.131l-9.944,0.506l-0.051-0.995l-2.446,0.124l0.747-20.165l1.625-12.621
			c4.337,1.891,8.981,2.98,13.707,3.217c0.759,1.795,2.041,3.321,3.678,4.377"/>
	</g>
	<g id="F2-SHOP-C016" class="_area_merchant">
		<polyline fill="#F27392" stroke="#FFFFFF" stroke-width="0.1" stroke-miterlimit="10" points="110.4,140.965 113.708,141.093 
			113.708,152.282 110.314,152.396 107.778,152.495 107.727,151.498 110.293,151.367 110.4,140.965 113.708,141.093 		"/>
	</g>
	<g id="F2-SHOP-C017" class="_area_merchant">
		<polyline fill="#F27392" stroke="#FFFFFF" stroke-width="0.1" stroke-miterlimit="10" points="95.628,156.7 113.663,155.854 
			116.318,177.305 100.354,180.876 101.378,185.256 99.471,185.689 97.481,175.814 95.675,159.849 95.628,156.7 		"/>
	</g>
	<g id="F2-SHOP-C032" class="_area_merchant">
		<polyline fill="#F27392" stroke="#FFFFFF" stroke-width="0.1" stroke-miterlimit="10" points="111.055,182.045 117.007,180.318 
			118.617,187.717 113.425,189.745 111.055,182.045 		"/>
	</g>
	<g id="F2-SHOP-C031" class="_area_merchant">
		<polyline fill="#F27392" stroke="#FFFFFF" stroke-width="0.1" stroke-miterlimit="10" points="110.977,186.463 111.884,190.292 
			101.74,194.254 100.225,189.012 110.977,186.463 		"/>
	</g>
	<g id="F2-SHOP-C033" class="_area_merchant">
		<path fill="#F27392" stroke="#FFFFFF" stroke-width="0.1" stroke-miterlimit="10" d="M115.82,204.678l5.113-6.869l-3.634-3.108
			l3.715-1.451c2.89,2.976,6.761,4.799,10.894,5.136l0.309,5.689l-2.19,0.07l0.186,3.197l-1.59,0.094l0.381,6.543l5.964-0.348
			l0.071,1.91c-12.481,1.479-24.598-4.822-30.553-15.893l4.628-1.754C110.883,200.574,113.162,202.878,115.82,204.678"/>
	</g>
	<g id="F2-SHOP-C039" class="_area_merchant">
		<path fill="#F27392" stroke="#FFFFFF" stroke-width="0.1" stroke-miterlimit="10" d="M134.09,198.469l1.594,17.034
			c6.528-0.498,12.781-2.833,18.038-6.733l-10.087-13.67C140.864,197.156,137.538,198.33,134.09,198.469"/>
	</g>
	<g id="F2-SHOP-C062" class="_area_merchant">
		<path fill="#F27392" stroke="#FFFFFF" stroke-width="0.1" stroke-miterlimit="10" d="M131.726,119.473
			c1.576,5.552,3.754,10.915,6.497,15.993l-8.97,5.181c-1.109-5.589-1.498-11.297-1.156-16.985c0.834-1.106,1.409-2.386,1.681-3.744
			L131.726,119.473"/>
	</g>
	<g id="F2-SHOP-C061" class="_area_merchant">
		<polyline fill="#F27392" stroke="#FFFFFF" stroke-width="0.1" stroke-miterlimit="10" points="139.638,143.237 141.159,145.332 
			143.653,143.521 146.569,147.009 141.944,151.167 137.038,145.107 139.638,143.237 		"/>
	</g>
	<g id="F2-SHOP-C050" class="_area_merchant">
		<path fill="#F27392" stroke="#FFFFFF" stroke-width="0.1" stroke-miterlimit="10" d="M150.481,178.346l16.685-2.744
			c0.53,3.785,0.538,7.625,0.025,11.414l-10.116-1.386l0.386-3.812l-6.579,1.033C151.043,181.338,150.906,179.809,150.481,178.346"
			/>
	</g>
	<g id="F2-SHOP-C045" class="_area_merchant">
		<path fill="#F27392" stroke="#FFFFFF" stroke-width="0.1" stroke-miterlimit="10" d="M150.9,182.85l6.561-1.029l-0.386,3.811
			l10.116,1.385c-1.216,6.698-4.115,12.979-8.423,18.25l-12.179-12.981C148.709,189.498,150.182,186.275,150.9,182.85"/>
	</g>
	<g id="F2-SHOP-C053" class="_area_merchant">
		<path fill="#F27392" stroke="#FFFFFF" stroke-width="0.1" stroke-miterlimit="10" d="M149.942,176.014l4.751-0.781l-0.355-2.163
			l11.57-1.901c-0.28-2.789-1.406-5.425-3.228-7.555l-15.722,7.838C148.257,172.75,149.273,174.303,149.942,176.014"/>
	</g>
	<g id="F2-SHOP-C056" class="_area_merchant">
		<path fill="#F27392" stroke="#FFFFFF" stroke-width="0.1" stroke-miterlimit="10" d="M156.78,166.556
			c-1.597-2.468-3.546-4.688-5.787-6.592l-9.109,4.547c1.523,2.433,3.219,4.752,5.075,6.941L156.78,166.556"/>
	</g>
	<g id="F2-SHOP-C055" class="_area_merchant">
		<path fill="#F27392" stroke="#FFFFFF" stroke-width="0.1" stroke-miterlimit="10" d="M137.038,145.107l4.906,6.06l4.629-4.162
			l8.47,7.784c3.033,2.482,5.617,5.467,7.638,8.826l-5.901,2.942c-1.597-2.468-3.546-4.688-5.787-6.592l-9.109,4.547
			c-3.331-5.389-5.94-11.193-7.761-17.261L137.038,145.107"/>
	</g>
	<g id="F2-SHOP-D001" class="_area_merchant">
		<polyline fill="#F27392" stroke="#FFFFFF" stroke-width="0.1" stroke-miterlimit="10" points="59.5,189.252 72.766,186.785 
			72.09,183.047 76.09,182.279 74.347,171.49 70.548,171.976 57.01,173.283 59.5,189.252 		"/>
	</g>
	<g id="F2-SHOP-D003" class="_area_merchant">
		<polyline fill="#F27392" stroke="#FFFFFF" stroke-width="0.1" stroke-miterlimit="10" points="57.186,168.865 70.078,167.668 
			69.141,149.248 72.925,149.073 73.237,139.153 55.72,138.8 56.345,168.946 57.186,168.865 		"/>
	</g>
	<g id="F2-SHOP-D008" class="_area_merchant">
		<polyline fill="#F27392" stroke="#FFFFFF" stroke-width="0.1" stroke-miterlimit="10" points="56.32,129.099 59.639,129.384 
			59.264,133.749 69.19,134.6 69.307,132.861 73.424,133.214 73.237,139.153 55.72,138.8 56.32,129.099 		"/>
	</g>
	<g id="F2-SHOP-D010" class="_area_merchant">
		<polyline fill="#F27392" stroke="#FFFFFF" stroke-width="0.1" stroke-miterlimit="10" points="58.755,108.733 71.929,111.501 
			69.858,130.26 56.32,129.099 58.755,108.733 		"/>
	</g>
	<g id="F2-SHOP-D013" class="_area_merchant">
		<polyline fill="#F27392" stroke="#FFFFFF" stroke-width="0.1" stroke-miterlimit="10" points="58.755,108.733 71.929,111.502 
			72.541,109.187 76.596,109.925 77.893,102.945 60.895,99.11 58.755,108.733 		"/>
	</g>
	<g id="F2-SHOP-D016" class="_area_merchant">
		<path fill="#F27392" stroke="#FFFFFF" stroke-width="0.1" stroke-miterlimit="10" d="M60.895,99.11l16.998,3.84
			c0.42-2.669,1.268-5.253,2.51-7.652L67.886,83.127L63.17,82.94l-3.715,5.317l2.053,3.284l0.903,0.903L60.895,99.11"/>
	</g>
	<g id="F2-SHOP-E001" class="_area_merchant">
		<path fill="#F27392" stroke="#FFFFFF" stroke-width="0.1" stroke-miterlimit="10" d="M92.076,80.497l-3.113,1.332l1.494,3.693
			l-3.461,2.054l-11.8-11.236l-1.182-4.472l3.68-3.519l6.945,0.253C90,65.926,95.8,64.239,101.76,63.623l3.133,13.325
			c-2.91,0.306-5.767,0.996-8.497,2.052l-3.899-9.146l-4.062,1.642L92.076,80.497"/>
	</g>
	<g id="F2-SHOP-E003" class="_area_merchant">
		<path fill="#F27392" stroke="#FFFFFF" stroke-width="0.1" stroke-miterlimit="10" d="M101.76,63.623l3.133,13.325l5.82-1.051
			l0.382,3.965l7.053-0.258l-0.199-17.675C112.499,61.694,107.044,62.265,101.76,63.623"/>
	</g>
	<g id="F2-SHOP-E008" class="_area_merchant">
		<path fill="#F27392" stroke="#FFFFFF" stroke-width="0.1" stroke-miterlimit="10" d="M117.95,61.929l0.199,17.675l6.15,0.308
			l0.798-8.278l9.062,1.315l1.313-2.633l0.578-8.265l-7.011,0.072l0.014,0.416C125.366,62.134,121.659,61.931,117.95,61.929"/>
	</g>
	<g id="F2-SHOP-E009" class="_area_merchant">
		<polyline fill="#F27392" stroke="#FFFFFF" stroke-width="0.1" stroke-miterlimit="10" points="131.937,76.248 126.726,75.491 
			126.288,80.034 131.047,80.821 131.937,76.248 		"/>
	</g>
	<g id="F2-SHOP-G001" class="_area_merchant">
		<path fill="#F27392" stroke="#FFFFFF" stroke-width="0.1" stroke-miterlimit="10" d="M215.095,148.812l4.094,8.211v30.417
			l-0.255-0.008H205.3c-5.037-0.647-9.496-3.576-12.092-7.941c-4.662-7.84-2.084-17.976,5.756-22.637L215.095,148.812"/>
	</g>
	<g id="F2-SHOP-G004" class="_area_merchant">
		<polyline fill="#F27392" stroke="#FFFFFF" stroke-width="0.1" stroke-miterlimit="10" points="219.388,178.299 219.333,189.423 
			235.022,189.423 235.022,178.3 219.388,178.3 		"/>
	</g>
	<g id="F2-SHOP-G005" class="_area_merchant">
		<polyline fill="#F27392" stroke="#FFFFFF" stroke-width="0.1" stroke-miterlimit="10" points="238.65,178.221 251.08,178.221 
			251.08,189.423 238.65,189.423 238.65,178.221 		"/>
	</g>
	<g id="F2-SHOP-G002" class="_area_merchant">
		<path fill="#F27392" stroke="#FFFFFF" stroke-width="0.1" stroke-miterlimit="10" d="M225.398,153.578l-3.229,1.61l-4-7.909
			l37.397-18.389c5.136-1.475,10.644,0.446,13.747,4.795c4.047,5.669,2.73,13.546-2.939,17.592l-1.306-2.019h-16.465l-8.479,4.246
			L225.398,153.578"/>
	</g>
	<g id="F2-SHOP-G003" class="_area_merchant">
		<polyline fill="#F27392" stroke="#FFFFFF" stroke-width="0.1" stroke-miterlimit="10" points="226.675,155.867 264.541,156.065 
			264.541,165.604 262.503,165.604 262.548,175.682 264.541,175.682 264.541,189.423 251.396,189.423 251.396,175.71 
			221.048,176.109 221.193,163.085 226.675,163.085 226.675,155.867 		"/>
	</g>
	<g id="F2-SHOP-F001" class="_area_merchant">
		<path fill="#F27392" stroke="#FFFFFF" stroke-width="0.1" stroke-miterlimit="10" d="M179.818,129.804
			c8.987,0.435,17.994-0.292,26.796-2.165c18.952-5.628,36.126-16.066,49.851-30.298c7.961-9.403,6.795-23.48-2.608-31.442
			c-0.722-0.612-1.483-1.177-2.276-1.692l-95.646-0.996c-5.153,6.357-8.748,13.832-10.498,21.826
			c-3.251,12.129-1.497,25.056,4.87,35.879l4.233-1.863l4.106-1.925c2.669,4.458,6.188,8.346,10.357,11.446
			c2.945-1.784,6.68-1.596,9.43,0.476l1.094,0.741"/>
	</g>
	<g id="LWPOLYLINE_39_" class="_area_elevator">
		<polyline fill="#FFCA84" points="172.747,269.322 180.314,269.322 180.314,276.541 172.747,276.541 172.747,269.322 		"/>
	</g>
	<g id="LWPOLYLINE_40_" class="_area_elevator">
		<polyline fill="#FFCA84" points="189.544,197.877 193.648,196.344 194.136,197.65 190.033,199.184 189.544,197.877 		"/>
	</g>
	<g id="LWPOLYLINE_41_" class="_area_elevator">
		<polyline fill="#FFCA84" points="151.031,260.848 152.418,260.984 152.241,262.77 150.854,262.63 151.031,260.848 		"/>
	</g>
	<g id="LWPOLYLINE_42_" class="_area_elevator">
		<polyline fill="#FFCA84" points="120.413,247.884 122.465,248.643 119.814,256.366 117.647,255.568 120.413,247.884 		"/>
	</g>
	<g id="LWPOLYLINE_43_" class="_area_elevator">
		<polyline fill="#FFCA84" points="125.667,249.742 127.753,250.404 125.216,258.167 123.017,257.464 125.667,249.742 		"/>
	</g>
	<g id="LWPOLYLINE_44_" class="_area_elevator">
		<polyline fill="#FFCA84" points="94.176,241.104 95.355,241.848 94.4,243.363 93.22,242.621 94.176,241.104 		"/>
	</g>
	<g id="LWPOLYLINE_45_" class="_area_elevator">
		<polyline fill="#FFCA84" points="74.756,229.829 77.062,231.881 70.822,238.591 68.689,236.643 74.756,229.829 		"/>
	</g>
	<g id="LWPOLYLINE_46_" class="_area_elevator">
		<polyline fill="#FFCA84" points="225.761,165.554 228.451,165.554 228.593,175.832 225.095,175.832 225.095,173.072 
			225.761,173.072 225.761,165.554 		"/>
	</g>
	<g id="LWPOLYLINE_47_" class="_area_elevator">
		<polyline fill="#FFCA84" points="232.88,165.554 232.88,175.71 236.764,175.71 236.764,165.554 232.88,165.554 		"/>
	</g>
	<g id="LWPOLYLINE_48_" class="_area_elevator">
		<polyline fill="#FFCA84" points="244.332,165.625 244.326,175.71 241.195,175.71 241.195,165.625 244.332,165.625 		"/>
	</g>
	<g id="LWPOLYLINE_49_" class="_area_elevator">
		<polyline fill="#FFCA84" points="246.074,153.854 250.356,153.854 250.356,155.945 246.076,155.945 246.076,153.854 		"/>
	</g>
	<g id="LWPOLYLINE_50_" class="_area_elevator">
		<polyline fill="#FFCA84" points="251.251,153.157 254.041,153.157 254.041,155.866 251.251,155.866 251.251,153.157 		"/>
	</g>
	<g id="LWPOLYLINE_51_" class="_area_elevator">
		<polyline fill="#FFCA84" points="147.542,101.064 152.701,100.612 152.882,102.813 147.732,103.242 147.542,101.064 		"/>
	</g>
	<g id="LWPOLYLINE_52_" class="_area_elevator">
		<polyline fill="#FFCA84" points="147.407,81.11 152.957,82.577 152.195,85.568 146.607,84.092 147.407,81.11 		"/>
	</g>
	<g id="LWPOLYLINE_53_" class="_area_elevator">
		<polyline fill="#FFCA84" points="195.923,69.403 198.114,69.403 198.123,71.476 195.932,71.476 195.923,69.403 		"/>
	</g>
	<g id="LWPOLYLINE_54_" class="_area_elevator">
		<polyline fill="#FFCA84" points="118.432,196.303 120.429,197.79 115.791,204.02 113.793,202.533 118.432,196.303 		"/>
	</g>
	<g id="LWPOLYLINE_82_" class="_area_elevator">
		<polyline fill="#FFCA84" points="127.54,178.73 131.153,176.344 132.069,177.744 128.463,180.125 127.54,178.73 		"/>
	</g>
	<g id="LWPOLYLINE_91_" class="_area_elevator">
		<polyline fill="#FFCA84" points="114.053,111.849 117.848,109.658 118.544,110.866 114.75,113.056 114.053,111.849 		"/>
	</g>
	<g id="LWPOLYLINE_109_" class="_area_elevator">
		<polyline fill="#FFCA84" points="67.585,199.488 65.378,203.273 66.582,203.975 68.79,200.189 67.585,199.488 		"/>
	</g>
	<g id="LWPOLYLINE_110_" class="_area_elevator">
		<polyline fill="#FFCA84" points="178.726,141.968 179.494,143.296 175.52,145.59 174.753,144.262 178.726,141.968 		"/>
	</g>
	<g id="LWPOLYLINE_55_" class="_area_stair">
		<polyline fill="#FFDEA3" points="240.41,237.159 245.585,237.159 245.585,247.713 240.41,247.713 240.41,237.159 		"/>
	</g>
	<g id="LWPOLYLINE_56_" class="_area_stair">
		<polyline fill="#FFDEA3" points="235.429,278.682 240.608,278.682 240.608,288.34 235.429,288.34 235.429,278.682 		"/>
	</g>
	<g id="LWPOLYLINE_57_" class="_area_stair">
		<polyline fill="#FFDEA3" points="147.41,254.389 150.336,254.775 149.603,260.02 146.699,259.727 147.41,254.389 		"/>
	</g>
	<g id="LWPOLYLINE_58_" class="_area_stair">
		<polyline fill="#FFDEA3" points="128.173,250.221 130.943,250.977 130.391,252.771 129.207,256.693 126.437,255.885 
			128.174,250.221 		"/>
	</g>
	<g id="LWPOLYLINE_59_" class="_area_stair">
		<polyline fill="#FFDEA3" points="99.749,237.27 102.462,238.958 99.738,243.602 97.057,241.874 99.749,237.27 		"/>
	</g>
	<g id="LWPOLYLINE_60_" class="_area_stair">
		<polyline fill="#FFDEA3" points="99.768,244.252 102.76,239.137 105.798,240.678 102.731,245.923 99.763,244.25 		"/>
	</g>
	<g id="LWPOLYLINE_61_" class="_area_stair">
		<polyline fill="#FFDEA3" points="71.111,238.715 77.749,231.419 80.958,234.188 74.283,241.75 71.111,238.715 		"/>
	</g>
	<g id="LWPOLYLINE_62_" class="_area_stair">
		<polyline fill="#FFDEA3" points="56.55,168.927 63.989,168.233 64.389,172.371 56.987,173.085 56.55,168.927 		"/>
	</g>
	<g id="LWPOLYLINE_63_" class="_area_stair">
		<polyline fill="#FFDEA3" points="59.837,129.401 69.311,130.23 69.004,134.384 59.48,133.568 59.837,129.401 		"/>
	</g>
	<g id="LWPOLYLINE_64_" class="_area_stair">
		<polyline fill="#FFDEA3" points="88.51,71.681 92.387,70.113 96.006,79.062 92.076,80.497 88.51,71.681 		"/>
	</g>
	<g id="LWPOLYLINE_65_" class="_area_stair">
		<polyline fill="#FFDEA3" points="125.275,71.86 132.44,72.899 131.975,76.052 126.547,75.264 124.979,74.927 125.275,71.86 		"/>
	</g>
	<g id="LWPOLYLINE_66_" class="_area_stair">
		<polyline fill="#FFDEA3" points="194.984,64.903 203.75,64.903 203.75,69.085 195.05,69.085 194.984,64.903 		"/>
	</g>
	<g id="LWPOLYLINE_67_" class="_area_stair">
		<polyline fill="#FFDEA3" points="233.721,64.903 228.783,64.903 228.783,69.085 233.721,69.085 233.721,64.903 		"/>
	</g>
	<g id="LWPOLYLINE_68_" class="_area_stair">
		<polyline fill="#FFDEA3" points="254.255,91.887 257.648,95.252 251.166,102.3 247.509,98.632 254.255,91.887 		"/>
	</g>
	<g id="LWPOLYLINE_69_" class="_area_stair">
		<polyline fill="#FFDEA3" points="153.359,66.265 158.208,69.554 153.083,78.429 148.362,75.464 153.359,66.265 		"/>
	</g>
	<g id="LWPOLYLINE_70_" class="_area_stair">
		<polyline fill="#FFDEA3" points="146.487,108.981 150.483,107.911 154.538,119.052 150.305,120.916 146.487,108.981 		"/>
	</g>
	<g id="LWPOLYLINE_71_" class="_area_stair">
		<polyline fill="#FFDEA3" points="226.179,114.368 227.617,118.139 219.354,121.586 217.807,117.701 226.179,114.368 		"/>
	</g>
	<g id="LWPOLYLINE_72_" class="_area_stair">
		<polyline fill="#FFDEA3" points="282.119,103.789 288.589,103.789 288.772,116.34 282.3,116.433 282.119,103.789 		"/>
	</g>
	<g id="LWPOLYLINE_73_" class="_area_stair">
		<polyline fill="#FFDEA3" points="254.382,151.684 261.134,151.684 261.134,155.866 254.382,155.866 254.382,151.684 		"/>
	</g>
	<g id="LWPOLYLINE_74_" class="_area_stair">
		<polyline fill="#FFDEA3" points="222.619,166.969 225.462,166.969 225.462,173.022 222.619,172.993 222.619,166.969 		"/>
	</g>
	<g id="LWPOLYLINE_75_" class="_area_stair">
		<polyline fill="#FFDEA3" points="244.326,169.677 247.169,169.677 247.169,174.217 244.321,174.217 244.326,169.677 		"/>
	</g>
	<g id="LWPOLYLINE_76_" class="_area_stair">
		<polyline fill="#FFDEA3" points="208.429,179.536 212.677,179.536 212.667,184.822 208.485,184.833 208.429,179.536 		"/>
	</g>
	<g id="LWPOLYLINE_77_" class="_area_stair">
		<polyline fill="#FFDEA3" points="130.236,204.332 134.412,204.088 134.967,213.631 130.792,213.875 130.236,204.332 		"/>
	</g>
	<g id="LWPOLYLINE_78_" class="_area_stair">
		<polyline fill="#FFDEA3" points="154.567,173.235 163.41,171.782 164.088,175.909 155.234,177.296 154.567,173.235 		"/>
	</g>
	<g id="LWPOLYLINE_79_" class="_area_stair">
		<polyline fill="#FFDEA3" points="139.763,137.732 131.559,143.687 134.017,147.07 142.163,141.105 139.763,137.732 		"/>
	</g>
	<g id="LWPOLYLINE_80_" class="_area_stair">
		<polyline fill="#FFDEA3" points="107.539,151.707 107.751,155.884 98.005,156.378 97.792,152.203 107.539,151.707 		"/>
	</g>
	<g id="LWPOLYLINE_81_" class="_area_stair">
		<polyline fill="#FFDEA3" points="101.343,184.244 111.031,181.943 112.043,185.904 102.307,188.313 101.343,184.244 		"/>
	</g>
	<g id="LWPOLYLINE_112_" class="_area_stair">
		<polyline fill="#FFDEA3" points="196.628,278.827 201.807,278.827 201.807,288.484 196.628,288.484 196.628,278.827 		"/>
	</g>
	<g id="LWPOLYLINE_83_" class="_area_escalator">
		<polyline fill="#FFAAD2" points="78.906,112.852 76.967,126.697 72.283,126.101 73.93,112.092 78.906,112.852 		"/>
	</g>
	<g id="LWPOLYLINE_84_" class="_area_escalator">
		<rect x="71.22" y="152.587" fill="#FFAAD2" width="5.549" height="13.886"/>
	</g>
	<g id="LWPOLYLINE_85_" class="_area_escalator">
		<polygon fill="#FFAAD2" points="106.623,78.218 93.424,82.737 94.607,86.838 108.307,82.798 		"/>
	</g>
	<g id="LWPOLYLINE_86_" class="_area_escalator">
		<polyline fill="#FFAAD2" points="181.978,103.792 181.933,89.484 185.357,89.472 185.357,103.744 181.978,103.792 		"/>
	</g>
	<g id="LWPOLYLINE_87_" class="_area_escalator">
		<rect x="221.841" y="89.472" fill="#FFAAD2" width="3.406" height="14.364"/>
	</g>
	<g id="LWPOLYLINE_88_" class="_area_escalator">
		<polyline fill="#FFAAD2" points="257.105,138.338 258.518,141.172 245.746,147.54 244.333,144.706 257.105,138.338 		"/>
	</g>
	<g id="LWPOLYLINE_89_" class="_area_escalator">
		<rect x="202.503" y="221.288" fill="#FFAAD2" width="32.264" height="4.581"/>
	</g>
	<g id="LWPOLYLINE_90_" class="_area_escalator">
		<polyline fill="#FFAAD2" points="140.275,176.908 142.01,179.46 129.404,187.688 127.726,185.336 140.275,176.908 		"/>
	</g>
	<g id="LWPOLYLINE_94_" class="_area_escalator">
		<polyline fill="#FFAAD2" points="120.129,128.121 123.796,127.551 126.182,141.299 122.537,141.762 120.129,128.121 		"/>
	</g>
	<g id="LWPOLYLINE_107_" class="_area_escalator">
		<polyline fill="#FFAAD2" points="152.137,125.473 149.898,127.712 159.989,137.803 162.229,135.564 152.137,125.473 		"/>
	</g>
	<g id="LWPOLYLINE_108_" class="_area_escalator">
		<polyline fill="#FFAAD2" points="81.601,211.697 84.762,211.497 85.741,211.436 86.215,225.447 82.639,225.627 81.601,211.697 		
			"/>
	</g>
	<g id="LWPOLYLINE_93_" class="_area_toilet">
		<polyline fill="#FF8562" points="66.26,169.989 70.279,169.601 70.524,171.778 66.47,172.169 66.26,169.989 		"/>
	</g>
	<g id="LWPOLYLINE_111_" class="_area_toilet">
		<polyline fill="#FF8562" points="208.712,204.249 208.33,215.5 206.108,215.824 203.832,216.363 199.108,206.24 203.973,204.834 
			208.712,204.249 		"/>
	</g>
</svg>

