<?xml version="1.0" encoding="utf-8"?>
<!-- Generator: Adobe Illustrator 16.0.0, SVG Export Plug-In . SVG Version: 6.00 Build 0)  -->
<!DOCTYPE svg PUBLIC "-//W3C//DTD SVG 1.1//EN" "http://www.w3.org/Graphics/SVG/1.1/DTD/svg11.dtd">
<svg version="1.1" id="图层_1" xmlns="http://www.w3.org/2000/svg" xmlns:xlink="http://www.w3.org/1999/xlink" x="0px" y="0px"
	 width="24px" height="14px" viewBox="0 0 24 14" enable-background="new 0 0 24 14" xml:space="preserve">
<g id="path">
	<circle fill="#ED0606" cx="5.177" cy="10.42" r="0.5"/>
	<circle fill="#ED0606" cx="5.176" cy="10.42" r="0.5"/>
	<circle fill="#ED0606" cx="10.69" cy="10.42" r="0.5"/>
	<circle fill="#ED0606" cx="10.69" cy="13.003" r="0.5"/>
	<circle fill="#ED0606" cx="16.213" cy="10.42" r="0.5"/>
	<circle fill="#ED0606" cx="16.213" cy="8.264" r="0.5"/>
	<circle fill="#ED0606" cx="16.213" cy="6.81" r="0.5"/>
	<circle fill="#ED0606" cx="16.213" cy="4.36" r="0.5"/>
	<circle fill="#ED0606" cx="11.189" cy="4.36" r="0.5"/>
	<circle fill="#ED0606" cx="11.189" cy="0.713" r="0.5"/>
	<circle fill="#ED0606" cx="16.506" cy="0.713" r="0.5"/>
	<circle fill="#ED0606" cx="9.005" cy="4.36" r="0.5"/>
	<circle fill="#ED0606" cx="19.789" cy="4.36" r="0.5"/>
	<circle fill="#ED0606" cx="10.005" cy="6.81" r="0.5"/>
	<circle fill="#ED0606" cx="22.858" cy="8.264" r="0.5"/>
	<circle fill="#ED0606" cx="22.358" cy="10.42" r="0.5"/>
	<circle fill="#ED0606" cx="22.358" cy="13.003" r="0.5"/>
	<circle fill="#ED0606" cx="5.176" cy="11.535" r="0.5"/>
	<line fill="none" stroke="#000000" stroke-width="0.1" stroke-miterlimit="10" x1="11.189" y1="0.713" x2="16.506" y2="0.713"/>
	<line fill="none" stroke="#000000" stroke-width="0.1" stroke-miterlimit="10" x1="11.189" y1="0.713" x2="11.189" y2="4.36"/>
	<line fill="none" stroke="#000000" stroke-width="0.1" stroke-miterlimit="10" x1="11.189" y1="4.36" x2="9.005" y2="4.36"/>
	<line fill="none" stroke="#000000" stroke-width="0.1" stroke-miterlimit="10" x1="11.189" y1="4.36" x2="16.213" y2="4.36"/>
	<line fill="none" stroke="#000000" stroke-width="0.1" stroke-miterlimit="10" x1="16.213" y1="4.36" x2="19.789" y2="4.36"/>
	<line fill="none" stroke="#000000" stroke-width="0.1" stroke-miterlimit="10" x1="16.213" y1="4.36" x2="16.213" y2="6.767"/>
	<line fill="none" stroke="#000000" stroke-width="0.1" stroke-miterlimit="10" x1="16.213" y1="6.767" x2="10.005" y2="6.81"/>
	<line fill="none" stroke="#000000" stroke-width="0.1" stroke-miterlimit="10" x1="16.213" y1="6.767" x2="16.213" y2="8.264"/>
	<line fill="none" stroke="#000000" stroke-width="0.1" stroke-miterlimit="10" x1="16.213" y1="8.264" x2="22.858" y2="8.264"/>
	<line fill="none" stroke="#000000" stroke-width="0.1" stroke-miterlimit="10" x1="16.213" y1="8.264" x2="16.213" y2="10.42"/>
	<line fill="none" stroke="#000000" stroke-width="0.1" stroke-miterlimit="10" x1="16.213" y1="10.42" x2="10.689" y2="10.42"/>
	<line fill="none" stroke="#000000" stroke-width="0.1" stroke-miterlimit="10" x1="16.213" y1="10.42" x2="22.358" y2="10.42"/>
	<line fill="none" stroke="#000000" stroke-width="0.1" stroke-miterlimit="10" x1="10.689" y1="10.42" x2="10.69" y2="13.003"/>
	<line fill="none" stroke="#000000" stroke-width="0.1" stroke-miterlimit="10" x1="22.358" y1="10.42" x2="22.358" y2="13.003"/>
	<line fill="none" stroke="#000000" stroke-width="0.1" stroke-miterlimit="10" x1="10.689" y1="10.42" x2="5.176" y2="10.42"/>
	<line fill="none" stroke="#000000" stroke-width="0.1" stroke-miterlimit="10" x1="5.176" y1="10.42" x2="5.176" y2="11.535"/>
</g>
</svg>

